<?xml version="1.0" encoding="UTF-8"?>
<svg id="logosandtypes_com" data-name="logosandtypes com" xmlns="http://www.w3.org/2000/svg" viewBox="0 0 150 150">
  <defs>
    <style>
      .cls-1 {
        fill: none;
      }
    </style>
  </defs>
  <path class="cls-1" d="M0,0H150V150H0V0Z"/>
  <path d="M47.78,127.16h9.59l18.15-22.29,18.24,22.29h9.69l-27.93-33.85-27.74,33.85Z"/>
  <path d="M94.05,23.26l-18.52,22.1-18.34-22.1h-10.06l28.4,34.13,28.49-34.13h-9.97Z"/>
  <path d="M7.91,23.26l42.97,52L7.54,127.16h9.97l43.25-51.9L17.5,23.26H7.91Z"/>
  <path d="M133.73,23.26l-43.25,52,43.16,51.9h9.78l-43.16-51.9,43.16-52h-9.69Z"/>
  <path d="M113.98,23.26l-38.36,46.36L37.16,23.26h-9.59l43.16,52L27.57,127.16h9.59l38.55-45.98,38.27,45.98h9.69l-43.25-51.9L123.57,23.26h-9.59Z"/>
</svg>